<svg xmlns="http://www.w3.org/2000/svg" width="20.379" height="24.252" viewBox="0 0 20.379 24.252">
  <path id="apple-13" d="M21.039,44.816a5.055,5.055,0,0,1,2.707-4.591A5.817,5.817,0,0,0,19.16,37.81c-1.922-.152-4.023,1.121-4.792,1.121-.812,0-2.675-1.067-4.137-1.067C7.211,37.912,4,40.273,4,45.076a13.5,13.5,0,0,0,.78,4.4c.693,1.987,3.194,6.86,5.8,6.779,1.364-.032,2.328-.969,4.1-.969,1.722,0,2.615.969,4.137.969,2.631-.038,4.895-4.467,5.555-6.459a5.367,5.367,0,0,1-3.341-4.976Zm-3.064-8.89A5.1,5.1,0,0,0,19.274,32,5.741,5.741,0,0,0,15.6,33.89a5.179,5.179,0,0,0-1.386,3.893A4.547,4.547,0,0,0,17.974,35.925Z" transform="translate(-4 -32)" fill="#fff"/>
</svg>
