<?xml version="1.0" encoding="UTF-8"?><svg xmlns="http://www.w3.org/2000/svg" viewBox="0 0 2500 1600"><defs><style>.d,.e{fill:#1f1533;}.f{fill:#2d1e4a;}.f,.g,.e{fill-rule:evenodd;}.g{fill:#130c1f;}</style></defs><g id="a"><g><rect class="d" width="2500" height="1600"/><path class="f" d="M361.32,0h1777.38c82.6,147.18,129.77,316.92,129.77,497.71,0,562.48-455.98,1018.46-1018.46,1018.46S231.55,1060.19,231.55,497.71c0-180.79,47.17-350.53,129.77-497.71Z"/><path class="e" d="M775.6,0h948.82c131.34,125.23,213.18,301.91,213.18,497.71,0,379.74-307.84,687.59-687.59,687.59S562.42,877.45,562.42,497.71c0-195.8,81.84-372.48,213.18-497.71Z"/></g></g><g id="b"/><g id="c"><g><g><path class="g" d="M1729.58,1600c17.09-48.7,62.31-112.58,204.6-108.29,218.99,6.6,123.16-287.15,366.91-280.9,91.68,2.35,154.76-8.56,198.91-24.98v414.16h-770.42Z"/><path class="g" d="M457.05,1519.5c.19-.39,26.32-55.19,58.09-123.67,15.43,2.25,124.29,16.15,111.63-41.75-12.3-56.25-83.73,9.17-104.23,25.78,12.36-26.74,25.3-54.99,37.72-82.55,14.2,.94,118.59,6.25,111.84-41.58-6.66-47.22-85.52,13.3-105.23,26.87,11.87-26.5,23.05-51.97,32.52-74.31,13.34,.55,120.6,3.55,112.09-41.53-8.49-45-88.54,15.86-106.24,27.58,6.04-14.55,11.15-27.4,14.97-37.82,5.27-8.83,91.17-92.85,37.05-106.55-54.02-13.67-43.48,106.58-43.44,107.02-5.72,15.41-14.14,35.88-24.16,59.25-3.23-31.53-11.58-116.69-47.83-90.91-37.46,26.64,24.64,94.29,39.67,109.75-10.2,23.38-21.59,48.85-33.27,74.61-2.34-25.89-6.84-120.9-48.43-95.83-42.43,25.58,29.8,99.99,41.33,111.45-12.7,27.86-25.52,55.62-37.34,81.02-1.59-29.1-3.58-122.52-48.44-93.78-45.94,29.44,26.27,98.02,40.48,110.85-25.09,53.75-43.94,93.25-44.09,93.58l5.32,2.53Z"/><path class="g" d="M2068.31,1450.52c-.21-.38-4.68-8.18-40.4-74.68-15.27,3.15-123.13,23.4-113.88-35.14,8.99-56.88,84.12,4.25,105.56,19.64-13.9-25.97-28.48-53.42-42.49-80.2-14.12,1.77-118.02,13.18-114.09-34.97,3.88-47.53,86.15,8.27,106.62,20.67-13.4-25.77-26.06-50.53-36.82-72.28-13.29,1.33-120.19,10.6-114.33-34.9,5.84-45.42,89.31,10.65,107.67,21.32-6.88-14.17-12.74-26.7-17.16-36.88-5.77-8.5-96.45-87.36-43.22-104.2,53.13-16.81,49.64,103.85,49.63,104.29,6.62,15.05,16.22,34.99,27.59,57.73,1.38-31.66,4.73-117.17,42.43-93.55,38.95,24.41-19.08,95.57-33.18,111.88,11.55,22.74,24.41,47.5,37.58,72.53,.82-25.99-.25-121.09,42.74-98.5,43.85,23.05-23.9,101.57-34.73,113.68,14.31,27.07,28.74,54.03,42.02,78.7-.12-29.15-3.59-122.52,42.87-96.45,47.59,26.7-20.49,99.39-33.93,113.03,28.2,52.19,24.49,45.15,24.67,45.47l-5.16,2.84Z"/><path class="g" d="M770.42,1600c-17.09-48.7-62.31-112.58-204.6-108.29-218.99,6.6-123.16-287.15-366.91-280.9-91.68,2.35-154.76-8.56-198.91-24.98v414.16H770.42Z"/><g><path class="g" d="M415.97,1251.05c12.77,0,23.18-10.41,23.18-23.18s-10.41-23.18-23.18-23.18-23.18,10.41-23.18,23.18,10.41,23.18,23.18,23.18Z"/><path class="g" d="M388.63,1150c4.88,0,8.85-3.98,8.85-8.85s-3.98-8.85-8.85-8.85-8.85,3.98-8.85,8.85,3.98,8.85,8.85,8.85Z"/><path class="g" d="M705.94,1368.98c6.95,0,12.62-5.67,12.62-12.62s-5.67-12.61-12.62-12.61-12.62,5.67-12.62,12.61,5.67,12.62,12.62,12.62Z"/><path class="g" d="M1821.97,1381.77c10.61,0,19.27-8.66,19.27-19.27s-8.66-19.27-19.27-19.27-19.27,8.66-19.27,19.27,8.66,19.27,19.27,19.27Z"/><path class="g" d="M1780.94,1294.16c6.54,0,11.87-5.33,11.87-11.87s-5.33-11.87-11.87-11.87-11.87,5.33-11.87,11.87,5.33,11.87,11.87,11.87Z"/><path class="g" d="M2132.34,1223.96c7.33,0,13.31-5.98,13.31-13.31s-5.98-13.31-13.31-13.31-13.31,5.98-13.31,13.31,5.98,13.31,13.31,13.31Z"/></g></g><g><path class="g" d="M770.42,0c-17.09,48.7-62.31,112.58-204.6,108.29-218.99-6.6-123.16,287.15-366.91,280.9-91.68-2.35-154.76,8.56-198.91,24.98V0H770.42Z"/><path class="g" d="M1729.58,0c17.09,48.7,62.31,112.58,204.6,108.29,218.99-6.6,123.16,287.15,366.91,280.9,91.68-2.35,154.76,8.56,198.91,24.98V0h-770.42Z"/></g><g><g><path class="g" d="M2359.03,269.27v272.59c0,6.64,1.16,12.77,3.47,18.35,2.3,5.56,5.81,10.71,10.51,15.4l30.54,30.54c5.84,5.84,10.27,12.39,13.25,19.6,2.98,7.19,4.47,14.94,4.47,23.2v444.07c0,2.91,.49,5.56,1.48,7.94,1,2.39,2.53,4.62,4.58,6.67l12.57,12.57c3.22,3.22,5.66,6.84,7.31,10.82v.02c1.66,4,2.49,8.27,2.49,12.81v157.69h-12.79v-157.69c0-2.91-.49-5.56-1.48-7.94-1-2.39-2.53-4.62-4.58-6.67l-12.57-12.57c-3.22-3.22-5.66-6.84-7.31-10.82v-.02c-1.66-4-2.49-8.27-2.49-12.81v-444.07c0-6.64-1.16-12.77-3.47-18.35-2.3-5.56-5.81-10.71-10.51-15.4l-30.54-30.54c-5.84-5.84-10.27-12.39-13.25-19.6-2.98-7.19-4.47-14.94-4.47-23.2V269.27h12.79Z"/><path class="g" d="M2355.5,416.38s-2.34-61.95,60.77-53.09c0,0,9.93,71.41-60.77,53.09Z"/><path class="g" d="M2349.31,491.04s2.34-61.95-60.77-53.09c0,0-9.93,71.41,60.77,53.09Z"/><path class="g" d="M2357.72,564.29s-2.34-61.95,60.77-53.09c0,0,9.93,71.41-60.77,53.09Z"/><path class="g" d="M2411.15,687.43s2.34-61.95-60.77-53.09c0,0-9.93,71.41,60.77,53.09Z"/><path class="g" d="M2417.26,776.75s-2.34-61.95,60.77-53.09c0,0,9.93,71.41-60.77,53.09Z"/><path class="g" d="M2413.66,828.97s2.34-61.94-60.77-53.09c0,0-9.93,71.41,60.77,53.09Z"/><path class="g" d="M2413.68,927.44s-2.34-61.95,60.77-53.09c0,0,9.93,71.41-60.77,53.09Z"/><path class="g" d="M2413.66,989.69s2.34-61.94-60.77-53.09c0,0-9.93,71.41,60.77,53.09Z"/><path class="g" d="M2413.68,1055.33s-2.34-61.95,60.77-53.09c0,0,9.93,71.41-60.77,53.09Z"/><path class="g" d="M2440.73,1186.25s2.34-61.95-60.77-53.09c0,0-9.93,71.41,60.77,53.09Z"/></g><g><path class="g" d="M140.99,269.27v272.59c0,6.64-1.16,12.77-3.47,18.35-2.3,5.56-5.81,10.71-10.51,15.4l-30.54,30.54c-5.84,5.84-10.27,12.39-13.25,19.6-2.98,7.19-4.47,14.94-4.47,23.2v444.07c0,2.91-.49,5.56-1.48,7.94-1,2.39-2.53,4.62-4.58,6.67l-12.57,12.57c-3.22,3.22-5.66,6.84-7.31,10.82v.02c-1.66,4-2.49,8.27-2.49,12.81v157.69h12.79v-157.69c0-2.91,.49-5.56,1.48-7.94,1-2.39,2.53-4.62,4.58-6.67l12.57-12.57c3.22-3.22,5.66-6.84,7.31-10.82v-.02c1.66-4,2.49-8.27,2.49-12.81v-444.07c0-6.64,1.16-12.77,3.47-18.35,2.3-5.56,5.81-10.71,10.51-15.4l30.54-30.54c5.84-5.84,10.27-12.39,13.25-19.6,2.98-7.19,4.47-14.94,4.47-23.2V269.27h-12.79Z"/><path class="g" d="M144.52,416.38s2.34-61.95-60.77-53.09c0,0-9.93,71.41,60.77,53.09Z"/><path class="g" d="M150.71,491.04s-2.34-61.95,60.77-53.09c0,0,9.93,71.41-60.77,53.09Z"/><path class="g" d="M142.3,564.29s2.34-61.95-60.77-53.09c0,0-9.93,71.41,60.77,53.09Z"/><path class="g" d="M88.87,687.43s-2.34-61.95,60.77-53.09c0,0,9.93,71.41-60.77,53.09Z"/><path class="g" d="M82.76,776.75s2.34-61.95-60.77-53.09c0,0-9.93,71.41,60.77,53.09Z"/><path class="g" d="M86.36,828.97s-2.34-61.94,60.77-53.09c0,0,9.93,71.41-60.77,53.09Z"/><path class="g" d="M86.34,927.44s2.34-61.95-60.77-53.09c0,0-9.93,71.41,60.77,53.09Z"/><path class="g" d="M86.36,989.69s-2.34-61.94,60.77-53.09c0,0,9.93,71.41-60.77,53.09Z"/><path class="g" d="M86.34,1055.33s2.34-61.95-60.77-53.09c0,0-9.93,71.41,60.77,53.09Z"/><path class="g" d="M59.29,1186.25s-2.34-61.95,60.77-53.09c0,0,9.93,71.41-60.77,53.09Z"/></g></g></g></g></svg>