<?xml version="1.0" encoding="UTF-8"?><svg id="a" xmlns="http://www.w3.org/2000/svg" xmlns:xlink="http://www.w3.org/1999/xlink" viewBox="0 0 128 128"><defs><style>.c{fill:url(#b);}.d{fill:#fff;}</style><linearGradient id="b" x1="-566.71" y1="563.43" x2="-493.29" y2="458.57" gradientTransform="translate(594 -447)" gradientUnits="userSpaceOnUse"><stop offset="0" stop-color="#ffb900"/><stop offset="1" stop-color="#9100eb"/></linearGradient></defs><circle class="c" cx="64" cy="64" r="64"/><g><path class="d" d="M82.33,104H45.67c-11.95,0-21.67-9.72-21.67-21.67V45.67c0-11.95,9.72-21.67,21.67-21.67h36.67c11.95,0,21.67,9.72,21.67,21.67v36.67c0,11.95-9.72,21.67-21.67,21.67ZM45.67,30.67c-8.27,0-15,6.73-15,15v36.67c0,8.27,6.73,15,15,15h36.67c8.27,0,15-6.73,15-15V45.67c0-8.27-6.73-15-15-15H45.67Z"/><path class="d" d="M64,84c-11.03,0-20-8.97-20-20s8.97-20,20-20,20,8.97,20,20-8.97,20-20,20Zm0-33.33c-7.35,0-13.33,5.98-13.33,13.33s5.98,13.33,13.33,13.33,13.33-5.98,13.33-13.33-5.98-13.33-13.33-13.33Z"/><circle class="d" cx="85.25" cy="42.75" r="4.58"/></g></svg>