<svg xmlns="http://www.w3.org/2000/svg" width="52" height="52" viewBox="0 0 52 52">
  <path id="spotify-2" d="M26,0A26,26,0,1,0,52,26,26,26,0,0,0,26,0ZM37.924,37.5a1.619,1.619,0,0,1-2.228.539c-6.1-3.731-13.79-4.574-22.84-2.507a1.621,1.621,0,1,1-.722-3.16c9.9-2.262,18.4-1.288,25.253,2.9A1.621,1.621,0,0,1,37.924,37.5Zm3.181-7.077a2.029,2.029,0,0,1-2.789.667c-6.987-4.3-17.642-5.539-25.908-3.03A2.027,2.027,0,1,1,11.23,24.18c9.442-2.865,21.181-1.478,29.206,3.454a2.025,2.025,0,0,1,.669,2.787Zm.273-7.373C33,18.071,19.173,17.614,11.172,20.041a2.431,2.431,0,1,1-1.41-4.654c9.185-2.787,24.451-2.25,34.1,3.477a2.432,2.432,0,0,1-2.482,4.183Z" fill="#2ebd59"/>
</svg>
