<?xml version="1.0" encoding="UTF-8"?><svg id="a" xmlns="http://www.w3.org/2000/svg" viewBox="0 0 1755.3 1755.37"><defs><style>.b{fill:#f28d1c;}.c{fill:#fff;}.d{fill:#af1920;}.e{fill:#be1f27;}.f{fill:#1d1d1b;}.g{fill:#3c3c3b;}</style></defs><circle class="g" cx="877.68" cy="877.69" r="802.3" transform="translate(-363.55 877.68) rotate(-45)"/><circle class="e" cx="877.68" cy="877.69" r="347.79" transform="translate(-363.55 877.68) rotate(-45)"/><circle class="d" cx="877.68" cy="877.69" r="204.99" transform="translate(-363.55 877.68) rotate(-45)"/><path class="f" d="M877.18,1695.99c-118.58,0-233.73-25.39-342.24-75.45C125.33,1431.54-54.15,944.55,134.84,534.94,268.13,246.06,559.92,59.4,878.19,59.4c118.58,0,233.73,25.39,342.24,75.45,409.6,188.99,589.09,675.99,400.1,1085.59-133.29,288.88-425.08,475.55-743.35,475.55Zm1.01-1604.98c-305.99,0-586.51,179.46-714.65,457.18-181.69,393.78-9.14,861.96,384.64,1043.65,104.33,48.14,215.02,72.54,329,72.54,305.99,0,586.51-179.46,714.65-457.18,181.69-393.78,9.14-861.96-384.64-1043.65-104.33-48.14-215.02-72.54-329-72.54Z"/><path class="f" d="M877.22,1610.72c-106.22,0-209.37-22.74-306.57-67.59-177.75-82.01-312.92-228.33-380.61-412.01-67.69-183.68-59.81-382.72,22.2-560.46,119.4-258.79,380.78-426,665.9-426,106.22,0,209.37,22.74,306.57,67.59,177.75,82.01,312.92,228.33,380.61,412.01,67.69,183.68,59.81,382.72-22.2,560.46-119.4,258.79-380.78,426-665.9,426Zm.92-1460.8c-283.07,0-542.57,166.01-661.12,422.94-81.42,176.47-89.25,374.08-22.04,556.44,67.21,182.35,201.4,327.62,377.87,409.05,96.51,44.53,198.91,67.11,304.37,67.11,283.07,0,542.57-166.01,661.12-422.94,81.42-176.47,89.25-374.08,22.04-556.44-67.21-182.35-201.4-327.62-377.87-409.05-96.51-44.53-198.91-67.11-304.37-67.11Z"/><path class="f" d="M877.26,1546.27c-96.88,0-190.96-20.74-279.62-61.65-162.12-74.8-285.4-208.25-347.14-375.78-61.74-167.52-54.55-349.07,20.25-511.18,108.9-236.03,347.3-388.54,607.35-388.54,96.88,0,190.96,20.74,279.62,61.65,162.12,74.8,285.4,208.25,347.14,375.78,61.74,167.52,54.55,349.07-20.25,511.18-108.9,236.03-347.3,388.54-607.35,388.54Zm.84-1331.89c-258,0-494.52,151.31-602.56,385.48-74.21,160.84-81.35,340.95-20.09,507.16,61.26,166.21,183.57,298.61,344.41,372.82,87.96,40.59,181.3,61.17,277.41,61.17,258,0,494.52-151.31,602.56-385.48,74.21-160.84,81.35-340.95,20.09-507.16-61.26-166.21-183.57-298.61-344.41-372.82-87.96-40.59-181.3-61.17-277.41-61.17Z"/><path class="f" d="M877.31,1477.38c-86.9,0-171.28-18.6-250.81-55.3-145.41-67.09-255.99-186.8-311.38-337.06-55.38-150.27-48.93-313.1,18.17-458.52,97.68-211.71,311.52-348.51,544.77-348.51,86.9,0,171.28,18.61,250.81,55.3,145.41,67.09,255.99,186.8,311.38,337.06,55.38,150.27,48.93,313.1-18.17,458.52-97.68,211.71-311.52,348.51-544.77,348.51Zm.75-1194.12c-231.2,0-443.16,135.6-539.99,345.45-66.51,144.14-72.9,305.54-18.01,454.49,54.89,148.95,164.5,267.6,308.64,334.1,78.83,36.37,162.47,54.81,248.6,54.81,231.2,0,443.16-135.6,539.99-345.45,66.51-144.14,72.9-305.54,18.01-454.49-54.89-148.95-164.5-267.6-308.64-334.1-78.83-36.37-162.47-54.81-248.6-54.81Z"/><path class="f" d="M877.35,1405.09c-76.42,0-150.63-16.36-220.57-48.63-263.99-121.81-379.67-435.67-257.86-699.67,85.91-186.19,273.96-306.49,479.1-306.49,76.42,0,150.63,16.36,220.57,48.63,263.99,121.81,379.67,435.67,257.86,699.67-85.91,186.19-273.96,306.49-479.1,306.49Zm.66-1049.52c-203.08,0-389.26,119.11-474.31,303.43-120.59,261.35-6.07,572.08,255.28,692.67,69.24,31.95,142.71,48.15,218.36,48.15,203.08,0,389.26-119.1,474.31-303.43,120.59-261.35,6.07-572.08-255.28-692.67-69.24-31.95-142.71-48.15-218.36-48.15Z"/><path class="f" d="M877.4,1327.96c-65.25,0-128.6-13.97-188.32-41.52-225.39-103.99-324.15-371.97-220.16-597.35,73.34-158.96,233.9-261.67,409.04-261.67,65.25,0,128.6,13.97,188.32,41.52,225.39,103.99,324.15,371.97,220.16,597.35-73.35,158.96-233.9,261.67-409.04,261.67Zm.57-895.28c-173.09,0-331.77,101.51-404.25,258.61-102.78,222.75-5.17,487.59,217.58,590.36,59.01,27.23,121.63,41.03,186.11,41.03,173.09,0,331.77-101.51,404.25-258.61,102.78-222.75,5.17-487.59-217.58-590.36-59.01-27.23-121.63-41.03-186.11-41.03Z"/><path class="b" d="M924.39,899.24c-11.9,25.79-42.46,37.06-68.25,25.15-25.79-11.9-37.06-42.46-25.15-68.25,11.9-25.79,42.46-37.06,68.25-25.15,25.79,11.9,37.06,42.46,25.15,68.25Z"/><path class="c" d="M1258.23,1173.37s2.96-3.32,8.14-9.13c2.72-2.79,5.59-6.53,8.99-10.66,1.68-2.07,3.47-4.28,5.36-6.61,1.78-2.42,3.65-4.97,5.61-7.62,4.05-5.19,7.81-11.26,12.05-17.47,2.18-3.06,4.03-6.47,6.07-9.85,1.94-3.44,4.24-6.76,6.15-10.39,3.92-7.2,7.94-14.64,11.59-22.43,3.97-7.63,7.12-15.79,10.6-23.78,3.03-8.18,6.46-16.23,8.88-24.48,1.23-4.11,2.78-8.1,3.85-12.17,1.13-4.06,2.24-8.07,3.34-12.01,1.17-3.93,1.76-7.92,2.75-11.74,.85-3.85,1.89-7.59,2.42-11.31,1.21-7.41,2.68-14.4,3.3-20.95,.4-3.27,.79-6.4,1.16-9.38,.29-2.99,.42-5.83,.62-8.51,.35-5.35,.82-10.04,.72-13.9,.17-7.77,.26-12.21,.26-12.21,0,0,.67,4.4,1.83,12.11,.67,3.87,.95,8.6,1.22,14.04,.13,2.72,.35,5.63,.43,8.69-.07,3.06-.14,6.28-.22,9.64,.04,6.75-.76,13.99-1.55,21.68-.88,7.66-2.22,15.71-3.91,23.97-1.93,8.2-3.69,16.75-6.52,25.15-2.39,8.53-5.78,16.88-8.81,25.35-3.7,8.2-7.07,16.55-11.26,24.35-3.8,8-8.46,15.38-12.74,22.64-4.51,7.11-9.09,13.86-13.75,20-4.71,6.11-9.15,11.89-13.79,16.78-2.25,2.49-4.41,4.88-6.46,7.15-2.21,2.13-4.31,4.16-6.28,6.06-3.93,3.81-7.37,7.05-10.46,9.41-6.09,4.84-9.57,7.61-9.57,7.61Z"/><path class="c" d="M1301.71,1228.26s3.53-4.17,9.89-11.3c3.29-3.47,6.95-7.97,11.03-13.15,2.06-2.57,4.25-5.31,6.56-8.19,2.2-2.98,4.51-6.11,6.93-9.38,2.38-3.29,4.99-6.61,7.44-10.23,2.43-3.63,4.95-7.38,7.53-11.24,1.29-1.93,2.6-3.88,3.92-5.85,1.22-2.04,2.46-4.11,3.71-6.2,2.53-4.16,5.11-8.4,7.74-12.72,4.78-8.91,10.03-17.93,14.53-27.54,4.9-9.41,9.04-19.35,13.28-29.24,2.12-4.95,3.89-10.03,5.85-15.02l2.86-7.5c.81-2.54,1.63-5.07,2.44-7.59,1.55-5.06,3.36-10.01,4.79-14.99,1.37-5.01,2.73-9.96,4.06-14.82,1.49-4.84,2.19-9.76,3.36-14.48,.99-4.75,2.31-9.36,2.91-13.95,1.41-9.15,3.17-17.77,3.84-25.85,.46-4.03,.89-7.9,1.31-11.57,.33-3.68,.46-7.19,.68-10.49,.41-6.6,.82-12.37,.62-17.12-.05-9.51,.07-15,.07-15,0,0,.81,5.38,1.98,14.9,.72,4.76,.94,10.56,1.26,17.25,.14,3.34,.39,6.91,.46,10.66-.11,3.76-.23,7.7-.35,11.82-.01,8.28-1.1,17.16-2.09,26.58-.36,4.74-1.43,9.49-2.17,14.41-.87,4.89-1.54,9.96-2.86,14.96-1.19,5.03-2.41,10.15-3.64,15.33-1.26,5.17-2.99,10.28-4.56,15.48-.8,2.59-1.61,5.2-2.42,7.81l-2.84,7.72c-1.95,5.13-3.7,10.38-5.84,15.46-4.46,10.09-8.82,20.23-13.95,29.81-4.66,9.82-10.55,18.77-15.67,27.73-2.86,4.3-5.67,8.53-8.42,12.67-1.39,2.05-2.77,4.09-4.14,6.09-1.46,1.94-2.91,3.85-4.33,5.74-2.86,3.76-5.65,7.42-8.34,10.95-2.77,3.48-5.68,6.65-8.35,9.79-2.72,3.09-5.22,6.14-7.79,8.88-2.66,2.67-5.17,5.2-7.54,7.57-4.69,4.78-8.82,8.86-12.46,11.95-7.15,6.34-11.33,9.86-11.33,9.86Z"/><path class="c" d="M1345.09,1290.11s4.32-5.08,12.06-13.79c4.01-4.24,8.37-9.8,13.37-16.13,2.5-3.16,5.16-6.52,7.96-10.06,2.65-3.67,5.44-7.52,8.35-11.54,6.01-7.89,11.74-16.99,18.03-26.43,3.24-4.66,6.1-9.75,9.15-14.87,2.95-5.17,6.31-10.25,9.25-15.69,5.87-10.89,12.03-22.08,17.51-33.85,5.95-11.54,10.82-23.81,16.08-35.89,4.63-12.33,9.79-24.48,13.54-36.91,1.91-6.2,4.21-12.22,5.88-18.36,1.72-6.12,3.42-12.17,5.09-18.12,1.8-5.92,2.76-11.93,4.24-17.7,1.29-5.81,2.87-11.44,3.71-17.04,1.89-11.17,4.11-21.7,5.09-31.56,.63-4.92,1.23-9.64,1.8-14.12,.47-4.5,.7-8.78,1.03-12.8,.62-8.05,1.24-15.09,1.11-20.9,.15-11.61,.38-18.3,.38-18.3,0,0,.7,6.6,1.67,18.26,.65,5.83,.66,12.91,.76,21.07,.03,4.08,.18,8.42,.11,13-.27,4.57-.55,9.37-.85,14.38-.33,10.07-1.88,20.85-3.36,32.29-.59,5.75-1.92,11.52-2.96,17.49-1.17,5.94-2.11,12.07-3.73,18.15-3.06,12.2-6.01,24.89-10.3,37.4-3.71,12.7-8.82,25.13-13.46,37.73-5.47,12.27-10.55,24.7-16.71,36.4-5.63,11.97-12.42,23.08-18.63,34.01-3.16,5.43-6.64,10.56-9.93,15.64-3.33,5.05-6.47,10.07-9.97,14.65-6.76,9.33-13.15,18.14-19.76,25.73-3.21,3.85-6.29,7.55-9.22,11.06-3.15,3.33-6.14,6.49-8.95,9.46-5.61,5.93-10.46,11.1-14.82,14.96-8.54,7.93-13.52,12.36-13.52,12.36Z"/><path class="c" d="M1391.67,1352.79s5.09-6,14.18-16.32c4.7-5.04,9.86-11.6,15.75-19.09,2.96-3.73,6.1-7.7,9.41-11.89,3.14-4.33,6.44-8.88,9.89-13.63,7.1-9.33,13.96-20.03,21.4-31.2,3.83-5.51,7.3-11.47,10.9-17.52,3.54-6.09,7.46-12.12,11.03-18.5,6.96-12.87,14.39-26.02,20.92-39.92,7.08-13.63,12.99-28.06,19.24-42.34,2.96-7.21,5.65-14.52,8.49-21.74,1.37-3.63,2.86-7.21,4.13-10.86,1.21-3.67,2.41-7.32,3.61-10.96,2.3-7.31,4.99-14.45,7.04-21.68,2.04-7.24,4.05-14.38,6.03-21.42,2.19-6.99,3.28-14.1,5.03-20.92,1.48-6.87,3.41-13.52,4.36-20.15,2.18-13.21,4.79-25.66,5.85-37.32,.7-5.82,1.37-11.4,2.01-16.7,.52-5.31,.72-10.38,1.06-15.14,.62-9.52,1.27-17.84,1.01-24.69-.03-13.71,.09-21.61,.09-21.61,0,0,.8,7.8,1.96,21.55,.79,6.87,.76,15.24,.86,24.86,.01,4.81,.21,9.94,.08,15.34-.33,5.39-.68,11.06-1.05,16.97-.41,11.88-2.35,24.58-4.12,38.07-.71,6.78-2.38,13.57-3.62,20.6-.68,3.51-1.38,7.05-2.07,10.63-.65,3.59-1.46,7.18-2.45,10.76-1.84,7.19-3.72,14.5-5.61,21.9-1.87,7.41-4.48,14.7-6.8,22.14-1.19,3.71-2.39,7.44-3.59,11.17-1.27,3.71-2.74,7.36-4.11,11.06-2.82,7.36-5.49,14.82-8.46,22.16-6.46,14.46-12.59,29.06-19.88,42.84-6.68,14.09-14.74,27.16-22.04,40.06-3.79,6.37-7.84,12.44-11.71,18.43-3.88,5.98-7.63,11.87-11.72,17.3-3.98,5.5-7.86,10.84-11.61,16.02-3.7,5.2-7.84,9.81-11.5,14.46-3.74,4.58-7.33,8.97-10.75,13.15-3.66,3.97-7.14,7.74-10.4,11.29-6.51,7.09-12.15,13.26-17.21,17.92-9.9,9.55-15.66,14.91-15.66,14.91Z"/><path class="c" d="M1411.82,1424.7s6.38-7.28,17.54-20.01c5.78-6.2,12.2-14.21,19.54-23.39,3.68-4.57,7.59-9.44,11.72-14.56,3.92-5.3,8.05-10.86,12.35-16.68,8.85-11.43,17.48-24.5,26.79-38.16,4.79-6.74,9.16-14.04,13.7-21.43,4.46-7.45,9.4-14.81,13.88-22.64,8.82-15.73,18.16-31.84,26.46-48.86,8.96-16.68,16.42-34.41,24.42-51.87,7.06-17.86,14.84-35.46,20.61-53.48,1.54-4.47,3.08-8.92,4.61-13.35,1.62-4.4,3.1-8.82,4.33-13.29,2.63-8.89,5.22-17.67,7.77-26.31,2.61-8.63,4.23-17.35,6.42-25.74,2.02-8.43,4.26-16.63,5.56-24.79,2.98-16.24,6.14-31.57,7.64-45.94,.94-7.16,1.84-14.02,2.7-20.55,.5-6.56,.98-12.79,1.43-18.64,.44-5.86,.85-11.35,1.23-16.42,.44-5.08,.19-9.75,.32-13.97,.27-16.92,.43-26.59,.43-26.59,0,0,.59,9.66,1.62,26.57,.14,4.23,.67,8.93,.54,14.04-.07,5.11-.14,10.64-.23,16.55-.09,5.92-.18,12.22-.28,18.86-.56,6.61-1.14,13.57-1.75,20.83-.31,3.63-.63,7.34-.95,11.12-.26,3.79-.68,7.63-1.32,11.51-1.18,7.77-2.39,15.81-3.64,24.07-1.05,8.31-3.05,16.66-4.82,25.26-1.9,8.57-3.49,17.42-5.92,26.21-2.42,8.8-4.87,17.74-7.36,26.79-2.28,9.12-5.76,17.99-8.71,27.1-5.74,18.3-13.48,36.18-20.55,54.31-8.21,17.64-15.89,35.54-25.06,52.36-8.44,17.2-18.41,33.22-27.56,48.98-4.69,7.81-9.75,15.22-14.54,22.56-4.83,7.32-9.46,14.53-14.52,21.19-4.92,6.74-9.71,13.3-14.34,19.64-4.57,6.38-9.64,12.06-14.14,17.77-4.6,5.64-9.01,11.04-13.2,16.18-4.47,4.91-8.71,9.57-12.7,13.95-7.94,8.77-14.85,16.39-20.99,22.22-12.1,11.84-19.02,18.6-19.02,18.6Z"/><path class="c" d="M1189.8,1122.76s2.49-3,6.96-8.13c2.33-2.49,4.8-5.79,7.73-9.43,1.45-1.83,2.99-3.77,4.62-5.83,1.55-2.12,3.17-4.36,4.86-6.69,3.5-4.56,6.79-9.87,10.48-15.29,3.6-5.49,7.04-11.52,10.68-17.65,3.47-6.26,6.95-12.76,10.18-19.53,3.5-6.63,6.27-13.74,9.31-20.71,2.71-7.11,5.67-14.13,7.82-21.31,2.45-7.08,4.39-14.19,6.33-21.07,.93-3.45,1.53-6.91,2.39-10.24,.81-3.35,1.62-6.62,2.1-9.86,1.12-6.46,2.33-12.56,2.91-18.28,.36-2.85,.71-5.59,1.05-8.19,.19-2.62,.38-5.1,.55-7.43,.36-4.68,.73-8.78,.69-12.15,.21-6.8,.33-10.68,.33-10.68,0,0,.7,3.81,1.77,10.57,.62,3.38,1,7.51,1.25,12.27,.16,2.39,.33,4.93,.51,7.61-.03,2.68-.06,5.5-.1,8.44-.1,2.94,.02,6.03-.26,9.2-.29,3.17-.59,6.44-.9,9.81-.58,6.75-1.89,13.77-3.23,21.04-1.73,7.17-3.15,14.71-5.68,22.06-2.12,7.48-5.05,14.8-7.77,22.2-3.27,7.17-6.26,14.48-9.98,21.29-3.39,6.99-7.51,13.42-11.33,19.73-3.98,6.21-8.08,12.05-12.21,17.4-4.17,5.32-8.12,10.32-12.21,14.57-1.99,2.16-3.89,4.23-5.71,6.2-1.95,1.85-3.8,3.61-5.53,5.27-3.46,3.31-6.5,6.12-9.2,8.18-5.31,4.26-8.4,6.62-8.4,6.62Z"/><path class="c" d="M411.96,782.9s-.15-4.44-.42-12.22c-.21-3.88,.02-8.61,.37-14.07,.17-2.73,.35-5.64,.54-8.71,.4-3.03,.81-6.22,1.25-9.55,.7-6.7,2.22-13.83,3.81-21.38,1.64-7.53,3.81-15.39,6.29-23.44,2.74-7.96,5.33-16.3,8.96-24.38,3.22-8.26,7.38-16.24,11.22-24.37,4.47-7.81,8.62-15.8,13.56-23.15,4.55-7.6,9.92-14.5,14.9-21.28,5.18-6.64,10.43-12.89,15.7-18.53,5.33-5.59,10.32-10.9,15.48-15.25,2.51-2.24,4.91-4.38,7.19-6.42,2.38-1.93,4.74-3.64,6.89-5.31,4.32-3.33,8.1-6.19,11.47-8.19,6.62-4.11,10.4-6.46,10.4-6.46,0,0-3.32,2.95-9.12,8.12-3,2.43-6.26,5.83-10.11,9.57-1.9,1.89-3.98,3.84-6.07,6-2.03,2.22-4.16,4.54-6.39,6.97-4.58,4.72-8.94,10.38-13.8,16.1-2.49,2.81-4.65,6.03-7.03,9.18-2.27,3.23-4.92,6.27-7.15,9.71-2.29,3.39-4.62,6.84-6.98,10.33-2.4,3.46-4.43,7.23-6.76,10.83-4.7,7.2-8.6,15.03-12.86,22.64-3.82,7.84-7.99,15.53-11.22,23.5-3.56,7.83-6.61,15.71-9.54,23.37-1.52,3.81-2.56,7.71-3.91,11.42-1.25,3.74-2.64,7.37-3.55,11.01-1.98,7.25-4.15,14.06-5.48,20.5-.75,3.21-1.47,6.29-2.16,9.21-.55,2.94-1.06,5.74-1.55,8.36-.94,5.26-1.92,9.88-2.28,13.76-1.06,7.71-1.66,12.11-1.66,12.11Z"/><path class="c" d="M341.98,785.44s-.04-5.47,.15-15.02c0-4.78,.41-10.56,1.01-17.23,.27-3.34,.56-6.9,.87-10.65,.42-3.73,1.11-7.61,1.7-11.69,.66-4.06,1.18-8.34,2.03-12.7,.94-4.35,1.92-8.84,2.92-13.45,.51-2.31,1.03-4.65,1.56-7.02,.64-2.34,1.29-4.71,1.95-7.1,1.36-4.78,2.76-9.66,4.17-14.63,3.49-9.71,6.48-20,10.92-29.92,3.96-10.12,8.84-20.01,13.63-29.95,2.48-4.92,5.33-9.66,7.97-14.48l4.03-7.17,4.38-6.91c2.94-4.57,5.7-9.2,8.82-13.51,3.14-4.3,6.25-8.54,9.3-12.72,2.95-4.24,6.37-8.04,9.53-11.88,3.27-3.75,6.19-7.65,9.56-11,6.53-6.87,12.58-13.46,18.86-18.84,3.06-2.77,5.99-5.42,8.77-7.94,2.9-2.39,5.78-4.51,8.42-6.57,5.29-4.1,9.85-7.7,13.94-10.24,8-5.29,12.63-8.16,12.63-8.16,0,0-4.1,3.65-11.37,9.79-3.75,2.93-7.87,6.99-12.62,11.58-2.36,2.31-4.95,4.68-7.53,7.33-2.53,2.7-5.18,5.54-7.95,8.51-5.71,5.75-11.13,12.68-17.17,19.69-3.1,3.44-5.74,7.43-8.72,11.27-2.83,3.96-6.12,7.68-8.83,11.96-2.84,4.17-5.72,8.41-8.64,12.71-2.87,4.33-5.45,8.91-8.3,13.38l-4.19,6.78-3.85,7.04c-2.52,4.73-5.24,9.38-7.63,14.2-4.77,9.64-9.65,19.25-13.62,29.08-4.39,9.66-7.84,19.51-11.52,28.93-1.58,4.8-3.14,9.52-4.66,14.14-.78,2.31-1.55,4.59-2.31,6.85-.64,2.29-1.28,4.55-1.91,6.78-1.26,4.47-2.48,8.82-3.66,13.03-1.17,4.21-2,8.35-2.96,12.3-.92,3.96-1.8,7.75-2.64,11.36-.7,3.63-1.35,7.07-1.97,10.31-1.3,6.48-2.34,12.17-2.85,16.93-1.3,9.46-2.18,14.86-2.18,14.86Z"/><path class="c" d="M266.77,792.58s.14-6.67,.63-18.31c.11-5.83,.89-12.87,1.76-20.98,.44-4.06,.9-8.39,1.39-12.95,.77-4.51,1.58-9.25,2.43-14.19,1.48-9.95,4.04-20.53,6.75-31.73,1.21-5.64,2.99-11.28,4.68-17.1,1.73-5.79,3.38-11.77,5.45-17.7,4.29-11.82,8.34-24.2,13.79-36.24,4.91-12.28,11.07-24.22,16.85-36.34,6.58-11.7,12.72-23.66,19.98-34.73,6.73-11.39,14.47-21.87,21.77-32.11,3.58-5.18,7.64-9.87,11.39-14.62,3.87-4.66,7.39-9.42,11.38-13.6,7.74-8.55,14.94-16.72,22.39-23.51,3.62-3.48,7.09-6.81,10.39-9.98,3.44-3.02,6.85-5.73,9.96-8.35,6.27-5.22,11.66-9.81,16.52-13.09,9.5-6.82,14.98-10.57,14.98-10.57,0,0-4.94,4.51-13.68,12.16-4.5,3.66-9.45,8.71-15.18,14.41-2.84,2.87-5.95,5.82-9.07,9.09-3.04,3.35-6.24,6.87-9.58,10.54-6.87,7.15-13.44,15.67-20.71,24.36-3.72,4.27-6.98,9.13-10.56,13.88-3.43,4.87-7.38,9.5-10.72,14.71-3.44,5.13-6.94,10.35-10.48,15.63-3.58,5.25-6.67,10.91-10.15,16.39-7.02,10.91-12.92,22.73-19.3,34.25-5.78,11.84-11.95,23.5-16.87,35.52-5.4,11.81-9.91,23.76-14.39,35.29-2.23,5.77-3.92,11.62-5.94,17.22-1.92,5.64-3.93,11.12-5.38,16.6-3.1,10.91-6.31,21.18-8.41,30.87-1.17,4.82-2.29,9.45-3.36,13.85-.88,4.43-1.71,8.63-2.49,12.58-1.57,7.91-2.98,14.84-3.6,20.64-1.6,11.54-2.66,18.12-2.66,18.12Z"/><path class="c" d="M188.85,797.81s.34-7.86,1.19-21.59c.27-6.87,1.29-15.17,2.47-24.72,.58-4.78,1.19-9.87,1.84-15.24,.96-5.31,1.97-10.89,3.03-16.71,1.16-5.8,1.98-11.95,3.54-18.14,1.5-6.21,3.06-12.63,4.65-19.23,1.48-6.64,3.52-13.31,5.55-20.15,2.05-6.83,4.05-13.85,6.43-20.87,5.08-13.92,9.79-28.54,16.18-42.76,5.76-14.49,12.89-28.63,19.7-42.93,3.65-7.02,7.59-13.89,11.36-20.82,1.93-3.44,3.75-6.93,5.75-10.3,2.06-3.34,4.12-6.67,6.17-9.98,4.16-6.59,8.01-13.31,12.43-19.54,4.4-6.24,8.74-12.41,13.02-18.48,2.08-3.07,4.28-6.02,6.59-8.84,2.27-2.85,4.52-5.68,6.74-8.48,4.55-5.5,8.63-11.19,13.33-16.12,9.12-10.1,17.52-19.82,26.3-27.84,4.26-4.12,8.34-8.06,12.23-11.81,4.03-3.6,8.06-6.78,11.72-9.89,7.39-6.17,13.73-11.61,19.48-15.47,11.21-8.05,17.66-12.5,17.66-12.5,0,0-5.92,5.22-16.38,14.09-5.39,4.24-11.29,10.14-18.13,16.79-3.39,3.35-7.12,6.78-10.83,10.63-3.62,3.93-7.43,8.06-11.4,12.37-8.19,8.38-15.96,18.44-24.6,28.67-4.43,5.03-8.24,10.8-12.5,16.39-4.05,5.75-8.76,11.2-12.65,17.4-4.06,6.07-8.2,12.24-12.38,18.49-4.17,6.25-7.85,12.93-11.93,19.42-1.99,3.28-3.99,6.57-6,9.86-1.95,3.33-3.71,6.79-5.58,10.19-3.66,6.84-7.47,13.64-11.03,20.57-6.8,14.02-13.95,27.88-19.72,42.11-6.33,13.99-11.52,28.18-16.79,41.82-2.54,6.86-4.58,13.76-6.91,20.4-2.27,6.67-4.55,13.18-6.26,19.67-3.67,12.9-7.36,25.07-9.85,36.53-1.38,5.7-2.7,11.17-3.96,16.37-1.03,5.24-2.01,10.21-2.94,14.88-1.87,9.35-3.52,17.53-4.3,24.37-1.95,13.62-3.21,21.38-3.21,21.38Z"/><path class="c" d="M121.06,829.15s.66-9.65,1.81-26.54c.45-8.46,1.76-18.65,3.28-30.39,.74-5.87,1.54-12.12,2.37-18.71,1.19-6.52,2.44-13.38,3.74-20.54,1.42-7.14,2.45-14.68,4.34-22.3,1.82-7.64,3.7-15.54,5.63-23.66,1.79-8.17,4.26-16.38,6.7-24.8,2.48-8.41,4.83-17.07,7.73-25.71,6.04-17.19,11.77-35.17,19.38-52.76,6.85-17.9,15.48-35.35,23.58-53.05,9.2-17.14,17.79-34.64,27.99-50.88,5.02-8.16,9.51-16.55,14.97-24.21,5.28-7.77,10.49-15.44,15.61-22.99,5.11-7.55,10.81-14.51,16.09-21.51,5.39-6.93,10.45-13.87,16.09-20.06,5.47-6.31,10.8-12.45,15.95-18.39,2.53-3.01,5.18-5.82,7.9-8.47,2.67-2.7,5.28-5.35,7.84-7.94,5.13-5.17,10.04-10.13,14.71-14.85,4.99-4.38,9.72-8.54,14.16-12.45,4.44-3.9,8.6-7.54,12.45-10.91,3.8-3.41,7.72-6.05,11.03-8.7,13.53-10.19,21.27-16.01,21.27-16.01,0,0-7.25,6.39-19.95,17.58-3.13,2.83-6.85,5.68-10.43,9.31-3.61,3.58-7.52,7.46-11.69,11.6-4.16,4.14-8.59,8.54-13.26,13.18-4.41,4.89-9.04,10.03-13.88,15.39-9.95,10.46-19.57,22.81-29.99,35.62-5.37,6.28-10.15,13.31-15.26,20.32-4.96,7.12-10.54,14.01-15.41,21.59-4.92,7.55-9.91,15.22-14.97,22.98-2.6,3.84-5,7.83-7.3,11.92-2.38,4.04-4.77,8.1-7.16,12.17-9.97,16.08-18.31,33.42-27.31,50.38-8.1,17.42-16.74,34.6-23.62,52.24-7.56,17.35-13.76,34.92-20,51.84-3.05,8.48-5.45,17.02-8.22,25.25-2.68,8.26-5.39,16.31-7.41,24.34-4.35,15.96-8.69,31-11.65,45.15-1.63,7.04-3.19,13.8-4.67,20.22-1.22,6.47-2.38,12.6-3.47,18.37-2.22,11.54-4.15,21.63-5.11,30.04-2.44,16.75-3.84,26.33-3.84,26.33Z"/><path class="c" d="M494.87,802.12s-.21-3.89-.41-10.69c-.18-3.39-.03-7.53,.25-12.31,.13-2.39,.27-4.94,.42-7.63,.32-2.66,.66-5.45,1.02-8.37,.57-5.87,1.82-12.12,3.16-18.75,1.39-6.6,3.18-13.52,5.32-20.58,2.32-7,4.54-14.32,7.66-21.43,2.77-7.25,6.38-14.27,9.72-21.41,3.87-6.87,7.54-13.85,11.85-20.32,3.95-6.69,8.77-12.66,13.1-18.63,4.66-5.73,9.16-11.29,13.91-16.11,2.36-2.42,4.66-4.77,6.88-7.05,2.22-2.27,4.65-4.18,6.83-6.16,2.22-1.93,4.34-3.79,6.36-5.55,2.15-1.6,4.2-3.12,6.11-4.55,3.79-2.9,7.18-5.29,10.15-7.01,5.83-3.58,9.19-5.52,9.19-5.52,0,0-2.88,2.61-7.91,7.18-2.6,2.15-5.47,5.1-8.8,8.41-1.66,1.64-3.43,3.4-5.3,5.24-1.76,1.94-3.62,3.98-5.56,6.11-3.97,4.15-7.84,9.02-12.02,14.07-2.15,2.47-4.12,5.21-6.14,8-1.98,2.82-4.23,5.52-6.24,8.46-3.97,5.94-8.12,12.03-11.92,18.49-4.07,6.29-7.48,13.11-11.14,19.78-3.32,6.84-6.93,13.56-9.71,20.52-3.06,6.85-5.74,13.72-8.25,20.42-2.3,6.76-4.66,13.28-6.5,19.58-1.73,6.33-3.64,12.27-4.83,17.9-.67,2.8-1.32,5.49-1.93,8.04-.51,2.57-.98,5-1.43,7.29-.87,4.59-1.78,8.62-2.16,12.01-1,6.73-1.67,10.57-1.67,10.57Z"/><path class="g" d="M882.43,1755.37l-.09-15.8c5.22-.03,10.44-.11,15.65-.24l.39,15.8c-5.31,.13-10.63,.21-15.94,.24Zm-26.57-.24c-5.31-.13-10.62-.31-15.93-.53l.67-15.79c5.22,.22,10.44,.4,15.65,.52l-.39,15.8Zm69.06-1.05l-.86-15.78c5.2-.29,10.4-.62,15.6-1l1.15,15.76c-5.29,.39-10.58,.72-15.89,1.01Zm-111.52-1.02c-5.3-.39-10.59-.82-15.89-1.31l1.44-15.74c5.2,.48,10.4,.91,15.6,1.28l-1.15,15.76Zm153.85-2.32l-1.63-15.72c5.19-.54,10.37-1.12,15.54-1.75l1.91,15.69c-5.27,.64-10.54,1.24-15.82,1.79Zm-196.16-1.82c-5.27-.65-10.53-1.34-15.8-2.08l2.2-15.65c5.18,.73,10.35,1.41,15.52,2.05l-1.92,15.69Zm238.28-3.58l-2.39-15.62c5.16-.79,10.3-1.62,15.45-2.5l2.66,15.58c-5.23,.89-10.47,1.74-15.72,2.55Zm-280.35-2.63c-5.23-.9-10.46-1.85-15.68-2.85l2.97-15.52c5.13,.98,10.27,1.91,15.4,2.8l-2.69,15.57Zm322.18-4.8l-3.14-15.49c5.11-1.04,10.22-2.12,15.31-3.24l3.42,15.43c-5.18,1.15-10.38,2.25-15.58,3.31Zm-363.88-3.44c-5.18-1.16-10.35-2.36-15.52-3.61l3.72-15.36c5.08,1.23,10.16,2.42,15.24,3.55l-3.44,15.42Zm405.31-5.99l-3.89-15.32c5.06-1.28,10.11-2.61,15.14-3.98l4.16,15.25c-5.12,1.4-10.26,2.74-15.41,4.05Zm-446.55-4.28c-5.11-1.41-10.22-2.86-15.32-4.36l4.46-15.16c5.02,1.48,10.03,2.9,15.06,4.28l-4.19,15.24Zm487.48-7.15l-4.61-15.11c4.99-1.53,9.97-3.09,14.93-4.7l4.89,15.03c-5.05,1.64-10.12,3.24-15.2,4.79Zm-528.18-5.11c-5.04-1.65-10.07-3.35-15.09-5.1l5.2-14.92c4.93,1.72,9.87,3.39,14.82,5.01l-4.92,15.02Zm568.52-8.28l-5.33-14.88c4.91-1.76,9.81-3.57,14.69-5.42l5.6,14.78c-4.97,1.88-9.96,3.72-14.96,5.52Zm-608.57-5.93c-4.95-1.89-9.9-3.83-14.83-5.82l5.9-14.66c4.85,1.95,9.7,3.86,14.57,5.71l-5.64,14.76Zm648.23-9.38l-6.04-14.61c4.82-1.99,9.63-4.04,14.41-6.12l6.31,14.49c-4.88,2.12-9.77,4.2-14.68,6.24Zm-687.56-6.73c-4.86-2.13-9.7-4.3-14.54-6.52l6.6-14.36c4.75,2.18,9.51,4.32,14.29,6.41l-6.34,14.48Zm726.45-10.48l-6.74-14.29c4.73-2.23,9.43-4.5,14.11-6.81l7,14.17c-4.77,2.35-9.56,4.67-14.36,6.93Zm-764.97-7.49c-4.77-2.36-9.51-4.77-14.22-7.21l7.27-14.03c4.63,2.4,9.29,4.76,13.97,7.08l-7.02,14.16Zm802.99-11.58l-7.42-13.95c4.61-2.45,9.2-4.95,13.77-7.48l7.67,13.82c-4.65,2.58-9.32,5.12-14.02,7.62Zm-840.61-8.21c-4.65-2.59-9.27-5.22-13.86-7.89l7.94-13.66c4.5,2.62,9.04,5.2,13.61,7.74l-7.69,13.81Zm877.68-12.68l-8.09-13.58c4.49-2.68,8.95-5.39,13.39-8.14l8.33,13.43c-4.52,2.81-9.07,5.57-13.64,8.29Zm-914.31-8.9c-4.52-2.81-9.01-5.66-13.47-8.55l8.6-13.26c4.37,2.83,8.78,5.63,13.22,8.39l-8.34,13.42Zm950.32-13.76l-8.73-13.17c4.35-2.89,8.68-5.82,12.98-8.78l8.98,13.01c-4.38,3.02-8.79,6.01-13.23,8.95Zm-985.87-9.57c-4.38-3.03-8.73-6.09-13.04-9.19l9.23-12.83c4.23,3.04,8.5,6.05,12.79,9.02l-8.99,13Zm1020.76-14.82l-9.37-12.73c4.21-3.1,8.39-6.23,12.54-9.41l9.6,12.56c-4.23,3.23-8.49,6.43-12.78,9.58Zm-1055.13-10.21c-4.24-3.25-8.44-6.53-12.61-9.85l9.84-12.37c4.09,3.26,8.22,6.48,12.38,9.67l-9.61,12.55Zm1088.8-15.85l-9.97-12.26c4.05-3.3,8.08-6.63,12.07-10.01l10.2,12.07c-4.07,3.44-8.17,6.83-12.3,10.19Zm-1122.01-10.91c-4.07-3.45-8.11-6.93-12.11-10.45l10.43-11.87c3.93,3.45,7.89,6.88,11.89,10.26l-10.22,12.06Zm1154.38-16.77l-10.56-11.76c3.89-3.49,7.75-7.02,11.57-10.59l10.78,11.56c-3.9,3.64-7.83,7.23-11.79,10.79Zm-1186.23-11.57c-3.89-3.64-7.76-7.32-11.58-11.02l11-11.35c3.76,3.64,7.54,7.25,11.37,10.83l-10.79,11.54Zm1217.21-17.66l-11.12-11.23c3.71-3.68,7.4-7.39,11.05-11.15l11.33,11.02c-3.72,3.83-7.47,7.61-11.26,11.36Zm-1247.62-12.19c-3.71-3.83-7.39-7.68-11.02-11.58l11.54-10.79c3.57,3.82,7.18,7.61,10.82,11.36l-11.34,11Zm1277.15-18.54l-11.65-10.67c3.53-3.85,7.03-7.75,10.49-11.68l11.85,10.45c-3.53,4.01-7.1,7.97-10.69,11.9Zm-1306.06-12.75c-3.52-4-7-8.03-10.44-12.09l12.05-10.22c3.38,3.99,6.8,7.95,10.25,11.88l-11.87,10.44Zm1334.07-19.39l-12.17-10.09c3.34-4.03,6.65-8.09,9.92-12.19l12.35,9.87c-3.33,4.17-6.7,8.31-10.1,12.41Zm-1361.4-13.27c-3.32-4.16-6.6-8.36-9.84-12.58l12.54-9.62c3.18,4.15,6.4,8.26,9.66,12.35l-12.36,9.85Zm1387.81-20.22l-12.64-9.48c3.13-4.17,6.22-8.37,9.28-12.61l12.81,9.25c-3.12,4.32-6.26,8.6-9.45,12.85Zm-1413.51-13.72c-3.11-4.32-6.18-8.67-9.21-13.04l12.99-9c2.97,4.29,5.99,8.56,9.05,12.81l-12.82,9.23Zm1438.18-20.92l-13.09-8.85c2.92-4.32,5.81-8.67,8.66-13.05l13.25,8.62c-2.9,4.46-5.84,8.89-8.81,13.29Zm-1462.21-14.21c-2.9-4.46-5.75-8.95-8.57-13.47l13.41-8.36c2.76,4.43,5.57,8.84,8.41,13.23l-13.26,8.6Zm1485.16-21.57l-13.5-8.21c2.71-4.46,5.38-8.94,8.01-13.46l13.65,7.96c-2.68,4.6-5.4,9.16-8.16,13.7Zm-1507.45-14.68c-2.68-4.6-5.31-9.22-7.9-13.86l13.8-7.7c2.55,4.56,5.13,9.1,7.76,13.61l-13.66,7.95Zm1528.64-22.17l-13.88-7.56c2.49-4.57,4.94-9.18,7.35-13.82l14.02,7.29c-2.46,4.73-4.96,9.42-7.49,14.08Zm-1549.14-15.11c-2.45-4.72-4.85-9.46-7.22-14.22l14.16-7.03c2.32,4.68,4.68,9.33,7.09,13.97l-14.03,7.28Zm1568.55-22.72l-14.23-6.87c2.27-4.69,4.49-9.41,6.69-14.16l14.35,6.62c-2.23,4.84-4.5,9.64-6.81,14.41Zm-1587.23-15.49c-2.22-4.83-4.39-9.68-6.52-14.55l14.48-6.34c2.09,4.78,4.23,9.55,6.41,14.29l-14.36,6.6Zm1598.77-9.36l-14.44-6.44c2.13-4.77,4.21-9.56,6.25-14.35l14.55,6.18c-2.07,4.88-4.19,9.74-6.36,14.61Zm-1615.57-29.71c-1.98-4.93-3.92-9.88-5.82-14.85l14.77-5.63c1.86,4.88,3.76,9.74,5.71,14.58l-14.66,5.9Zm1631.95-9.5l-14.72-5.75c1.9-4.86,3.75-9.74,5.55-14.62l14.83,5.47c-1.84,4.97-3.72,9.94-5.65,14.9Zm-1646.86-30.31c-1.74-5.02-3.44-10.05-5.09-15.1l15.02-4.92c1.62,4.96,3.29,9.91,5,14.84l-14.93,5.18Zm1661.34-9.64l-14.99-5.03c1.66-4.95,3.28-9.91,4.84-14.88l15.07,4.75c-1.6,5.05-3.24,10.11-4.93,15.15Zm-1674.31-30.84c-1.5-5.1-2.95-10.21-4.36-15.33l15.24-4.18c1.38,5.03,2.81,10.05,4.28,15.06l-15.16,4.45Zm1686.84-9.77l-15.21-4.3c1.42-5.03,2.79-10.06,4.11-15.09l15.28,4.01c-1.35,5.13-2.74,10.26-4.19,15.38ZM24.72,1083.84c-1.25-5.16-2.45-10.33-3.61-15.52l15.42-3.44c1.14,5.09,2.32,10.17,3.55,15.24l-15.36,3.72Zm1708.4-9.9l-15.4-3.55c1.17-5.09,2.3-10.18,3.38-15.28l15.46,3.27c-1.1,5.19-2.24,10.38-3.44,15.56ZM15.71,1042.31c-1-5.21-1.95-10.44-2.86-15.67l15.57-2.7c.89,5.14,1.83,10.27,2.81,15.4l-15.52,2.97Zm1725.94-10.01l-15.56-2.79c.92-5.14,1.8-10.28,2.63-15.43l15.6,2.51c-.84,5.24-1.73,10.48-2.67,15.71ZM8.72,1000.41c-.75-5.26-1.45-10.52-2.1-15.79l15.69-1.93c.64,5.17,1.32,10.34,2.06,15.5l-15.64,2.23Zm1739.43-10.14l-15.68-2.02c.67-5.18,1.29-10.36,1.87-15.55l15.71,1.75c-.59,5.27-1.22,10.54-1.9,15.82ZM3.76,958.23c-.49-5.28-.93-10.57-1.33-15.86l15.76-1.18c.39,5.2,.83,10.39,1.31,15.58l-15.74,1.46Zm1748.82-10.23l-15.75-1.27c.42-5.21,.79-10.41,1.11-15.61l15.77,.97c-.33,5.3-.7,10.6-1.13,15.9ZM.85,915.88c-.24-5.3-.42-10.61-.56-15.92l15.8-.41c.13,5.21,.32,10.43,.55,15.63l-15.79,.7Zm1754.09-10.32l-15.79-.49c.16-5.22,.28-10.44,.34-15.65l15.8,.21c-.07,5.31-.19,10.62-.36,15.94ZM15.8,873.44l-15.8-.07c.02-5.31,.09-10.62,.21-15.94l15.8,.35c-.12,5.22-.19,10.44-.21,15.65Zm1723.63-10.13c-.09-5.22-.23-10.44-.41-15.64l15.79-.57c.19,5.31,.33,10.62,.42,15.93l-15.8,.28ZM17,831.71l-15.78-.83c.28-5.3,.61-10.61,.99-15.91l15.76,1.13c-.37,5.21-.69,10.41-.97,15.62Zm1720.7-10.07c-.34-5.21-.74-10.4-1.17-15.59l15.75-1.33c.45,5.29,.84,10.58,1.19,15.88l-15.77,1.04ZM20.23,790.1l-15.72-1.61c.54-5.28,1.13-10.56,1.76-15.84l15.69,1.89c-.63,5.19-1.2,10.37-1.73,15.56Zm1713.72-9.99c-.6-5.18-1.24-10.36-1.93-15.52l15.66-2.09c.7,5.26,1.36,10.53,1.96,15.8l-15.7,1.81ZM25.49,748.69l-15.62-2.37c.8-5.24,1.64-10.49,2.54-15.73l15.58,2.65c-.88,5.15-1.71,10.3-2.49,15.45Zm1702.69-9.89c-.85-5.14-1.74-10.28-2.68-15.41l15.55-2.85c.95,5.22,1.86,10.45,2.72,15.7l-15.59,2.56ZM32.76,707.59l-15.49-3.13c1.05-5.2,2.15-10.4,3.3-15.59l15.43,3.41c-1.13,5.1-2.21,10.2-3.24,15.31Zm1687.67-9.79c-1.09-5.1-2.23-10.19-3.42-15.27l15.39-3.59c1.21,5.17,2.37,10.36,3.48,15.55l-15.45,3.3ZM42.03,666.89l-15.32-3.88c1.3-5.14,2.65-10.28,4.05-15.41l15.25,4.16c-1.37,5.04-2.7,10.09-3.98,15.14Zm1668.68-9.67c-1.34-5.05-2.72-10.08-4.15-15.09l15.2-4.33c1.45,5.11,2.86,10.23,4.22,15.37l-15.27,4.05ZM53.26,626.7l-15.11-4.62c1.55-5.07,3.15-10.13,4.8-15.19l15.03,4.9c-1.62,4.97-3.19,9.94-4.71,14.92Zm1645.77-9.55c-1.58-4.97-3.2-9.93-4.87-14.88l14.98-5.06c1.7,5.04,3.35,10.09,4.96,15.15l-15.06,4.78Zm-1632.6-30.06l-14.87-5.35c1.79-4.99,3.64-9.97,5.53-14.94l14.77,5.61c-1.86,4.88-3.67,9.78-5.43,14.67Zm1619.02-9.42c-1.82-4.89-3.68-9.77-5.58-14.63l14.71-5.77c1.94,4.95,3.84,9.92,5.69,14.9l-14.82,5.5Zm-1603.96-29.51l-14.6-6.06c2.03-4.9,4.11-9.78,6.23-14.66l14.49,6.31c-2.09,4.79-4.13,9.59-6.12,14.4Zm1588.48-9.27c-2.05-4.8-4.14-9.58-6.28-14.35l14.42-6.47c2.18,4.85,4.31,9.72,6.4,14.61l-14.53,6.2ZM98.4,509.99l-14.3-6.74c2.27-4.82,4.58-9.6,6.93-14.36l14.17,7c-2.31,4.67-4.58,9.37-6.81,14.1Zm1554.24-9.1c-2.28-4.7-4.6-9.38-6.97-14.03l14.09-7.16c2.41,4.74,4.77,9.5,7.09,14.29l-14.21,6.9ZM117.1,472.67l-13.96-7.42c2.5-4.7,5.04-9.38,7.61-14.01l13.82,7.67c-2.53,4.56-5.02,9.14-7.47,13.76Zm1516.4-8.9c-2.5-4.58-5.05-9.14-7.64-13.68l13.73-7.84c2.64,4.62,5.23,9.27,7.78,13.93l-13.86,7.58Zm-1495.93-27.49l-13.58-8.08c2.72-4.58,5.48-9.12,8.28-13.63l13.43,8.32c-2.74,4.43-5.45,8.89-8.13,13.39Zm1475.01-8.68c-2.72-4.46-5.49-8.89-8.3-13.3l13.33-8.48c2.86,4.49,5.67,9,8.45,13.54l-13.48,8.24Zm-1452.8-26.68l-13.18-8.73c2.94-4.44,5.92-8.85,8.93-13.22l13.01,8.97c-2.96,4.29-5.88,8.61-8.76,12.97Zm1430.15-8.43c-2.94-4.32-5.92-8.62-8.94-12.89l12.91-9.12c3.07,4.35,6.1,8.72,9.1,13.12l-13.07,8.89Zm-1406.25-25.8l-12.74-9.36c3.17-4.31,6.36-8.58,9.6-12.81l12.56,9.59c-3.18,4.16-6.32,8.35-9.42,12.58Zm1381.92-8.19c-3.14-4.17-6.33-8.32-9.55-12.44l12.45-9.74c3.28,4.2,6.52,8.42,9.72,12.67l-12.63,9.5Zm-1356.31-24.95l-12.26-9.96c3.37-4.14,6.77-8.25,10.2-12.32l12.08,10.19c-3.37,4-6.71,8.03-10.02,12.09Zm1330.34-7.82c-3.34-4.02-6.73-8-10.14-11.96l11.96-10.34c3.49,4.03,6.93,8.09,10.34,12.18l-12.15,10.11Zm-1303.15-24l-11.76-10.56c3.56-3.97,7.16-7.9,10.79-11.8l11.56,10.77c-3.56,3.82-7.09,7.69-10.59,11.59Zm1275.62-7.47c-3.54-3.85-7.11-7.67-10.73-11.46l11.44-10.9c3.68,3.86,7.32,7.74,10.92,11.66l-11.63,10.7Zm-1246.92-22.98l-11.23-11.12c3.75-3.79,7.54-7.54,11.35-11.25l11.03,11.32c-3.75,3.65-7.46,7.33-11.15,11.05Zm1217.87-7.13c-3.72-3.67-7.48-7.31-11.27-10.92l10.89-11.45c3.87,3.68,7.69,7.38,11.49,11.13l-11.1,11.25Zm-1187.72-21.87l-10.67-11.65c3.93-3.6,7.89-7.16,11.89-10.68l10.45,11.85c-3.92,3.45-7.81,6.95-11.67,10.48Zm1157.22-6.79c-3.9-3.49-7.83-6.94-11.8-10.36l10.32-11.97c4.04,3.48,8.05,7,12.02,10.55l-10.54,11.78Zm-1125.7-20.7l-10.09-12.16c4.1-3.4,8.23-6.77,12.39-10.09l9.87,12.34c-4.08,3.26-8.14,6.56-12.16,9.91Zm1093.83-6.44c-4.07-3.29-8.17-6.55-12.3-9.78l9.72-12.46c4.21,3.28,8.38,6.6,12.53,9.95l-9.94,12.28Zm-1061.01-19.46l-9.49-12.64c4.26-3.2,8.55-6.35,12.86-9.47l9.25,12.82c-4.23,3.06-8.44,6.16-12.62,9.3Zm1027.83-6.09c-4.2-3.08-8.44-6.12-12.71-9.13l9.1-12.92c4.35,3.07,8.67,6.17,12.95,9.3l-9.34,12.75Zm-993.8-18.18l-8.86-13.09c4.41-2.98,8.84-5.93,13.3-8.83l8.62,13.24c-4.38,2.85-8.73,5.74-13.06,8.67Zm959.53-5.65c-4.35-2.87-8.74-5.71-13.15-8.5l8.46-13.35c4.5,2.85,8.96,5.74,13.39,8.66l-8.7,13.19Zm-924.37-16.94l-8.22-13.5c4.54-2.77,9.11-5.49,13.7-8.18l7.97,13.64c-4.51,2.64-9,5.31-13.46,8.03Zm888.98-5.2c-4.48-2.65-9-5.28-13.54-7.86l7.81-13.74c4.63,2.63,9.22,5.3,13.79,8l-8.06,13.6Zm-852.78-15.65l-7.56-13.88c4.67-2.54,9.37-5.04,14.08-7.5l7.31,14.01c-4.63,2.42-9.24,4.87-13.83,7.37Zm816.35-4.75c-4.61-2.44-9.24-4.84-13.91-7.2l7.14-14.1c4.75,2.4,9.47,4.85,14.16,7.33l-7.39,13.97Zm-779.19-14.32l-6.88-14.23c4.79-2.31,9.59-4.59,14.42-6.81l6.62,14.35c-4.74,2.19-9.46,4.42-14.17,6.69Zm741.83-4.32l-5.36-2.5c-2.96-1.36-5.92-2.71-8.88-4.04l6.47-14.42c3.01,1.35,6.03,2.72,9.04,4.11l5.45,2.54-6.71,14.31Zm-703.8-12.95l-6.18-14.54c4.89-2.08,9.8-4.11,14.73-6.11l5.93,14.65c-4.84,1.96-9.67,3.96-14.47,6Zm665.6-3.9c-4.84-1.99-9.68-3.94-14.52-5.84l5.77-14.71c4.93,1.93,9.86,3.91,14.78,5.94l-6.02,14.61Zm-626.78-11.52l-5.48-14.82c4.98-1.84,9.99-3.64,15-5.39l5.21,14.92c-4.93,1.72-9.84,3.49-14.74,5.29Zm587.82-3.48c-4.92-1.76-9.84-3.47-14.78-5.13l5.05-14.98c5.02,1.7,10.04,3.44,15.05,5.23l-5.33,14.88Zm-548.33-10.04l-4.76-15.07c5.07-1.6,10.15-3.15,15.25-4.66l4.48,15.16c-5,1.48-9.99,3-14.96,4.58Zm508.7-3.06c-5-1.52-10.01-2.99-15.02-4.41l4.33-15.2c5.1,1.45,10.19,2.95,15.28,4.5l-4.59,15.12Zm-468.61-8.54l-4.02-15.28c5.13-1.35,10.28-2.66,15.44-3.92l3.76,15.35c-5.07,1.24-10.13,2.52-15.18,3.85Zm428.39-2.62c-5.06-1.27-10.13-2.5-15.2-3.68l3.57-15.4c5.17,1.2,10.33,2.45,15.49,3.75l-3.86,15.33Zm-387.79-7.03l-3.28-15.46c5.19-1.1,10.4-2.16,15.61-3.17l3,15.52c-5.12,.99-10.23,2.03-15.34,3.11Zm347.08-2.17c-5.12-1.02-10.25-2-15.37-2.93l2.82-15.55c5.22,.95,10.43,1.94,15.65,2.99l-3.1,15.5Zm-306.07-5.52l-2.54-15.6c5.24-.85,10.49-1.66,15.74-2.42l2.25,15.64c-5.17,.74-10.32,1.53-15.46,2.37Zm264.96-1.68c-5.16-.77-10.33-1.5-15.5-2.18l2.06-15.67c5.26,.69,10.52,1.43,15.79,2.22l-2.35,15.63Zm-223.64-4.01l-1.78-15.7c5.27-.6,10.55-1.15,15.84-1.65l1.49,15.73c-5.19,.49-10.38,1.03-15.55,1.62Zm182.22-1.17c-5.2-.52-10.39-1-15.59-1.42l1.29-15.75c5.29,.44,10.58,.92,15.88,1.45l-1.58,15.73Zm-140.69-2.51l-1.01-15.77c5.29-.34,10.59-.63,15.89-.88l.74,15.79c-5.21,.24-10.42,.53-15.62,.86Zm99.07-.64c-5.22-.27-10.43-.49-15.64-.66l.52-15.79c5.31,.17,10.61,.4,15.93,.67l-.81,15.78Zm-57.39-1.02l-.25-15.8c4.56-.07,9.11-.1,13.7-.11h2.26l-.06,15.81h-2.21c-4.45-.03-8.97,.03-13.44,.1Z"/></svg>