<svg xmlns="http://www.w3.org/2000/svg" width="52" height="52" viewBox="0 0 52 52">
  <path id="youtube-round" d="M26,0A26,26,0,1,1,0,26,26,26,0,0,1,26,0ZM40.24,20.182A6.225,6.225,0,0,0,39.086,17.3a4.172,4.172,0,0,0-2.917-1.232c-4.071-.3-10.169-.3-10.169-.3h-.016s-6.114,0-10.169.3A4.172,4.172,0,0,0,12.9,17.3a6.225,6.225,0,0,0-1.154,2.885,43.24,43.24,0,0,0-.3,4.71v2.2a43.24,43.24,0,0,0,.3,4.71A6.225,6.225,0,0,0,12.9,34.687a4.985,4.985,0,0,0,3.213,1.248c2.324.218,9.888.3,9.888.3s6.114-.016,10.185-.3A4.172,4.172,0,0,0,39.1,34.7a6.225,6.225,0,0,0,1.154-2.885,43.24,43.24,0,0,0,.3-4.71v-2.2a43.24,43.24,0,0,0-.3-4.71ZM22.974,29.774V21.6l7.861,4.1Z" fill="red" fill-rule="evenodd"/>
</svg>
